<?xml version="1.0" standalone="no"?>
<!DOCTYPE svg PUBLIC "-//W3C//DTD SVG 20010904//EN"
 "http://www.w3.org/TR/2001/REC-SVG-20010904/DTD/svg10.dtd">
<svg version="1.0" xmlns="http://www.w3.org/2000/svg"
 width="256.000000pt" height="256.000000pt" viewBox="0 0 256.000000 256.000000"
 preserveAspectRatio="xMidYMid meet">
<metadata>
Created by potrace 1.14, written by Peter Selinger 2001-2017
</metadata>
<g transform="translate(0.000000,256.000000) scale(0.100000,-0.100000)"
fill="#000000" stroke="none">
<path d="M1310 2022 c-21 -7 -30 -23 -30 -54 0 -26 -1 -27 -72 -27 -40 0 -115
-10 -167 -21 -52 -11 -129 -20 -171 -20 -85 0 -100 -8 -100 -55 l0 -31 -209 1
c-201 0 -211 1 -230 21 -18 20 -29 21 -166 20 -117 -1 -148 -4 -155 -16 -16
-25 -12 -126 6 -140 10 -9 56 -14 147 -15 132 -1 177 7 177 32 0 10 42 13 215
13 l215 0 0 -35 c0 -28 5 -37 23 -44 12 -4 254 -8 537 -8 564 0 550 -2 550 58
0 15 -24 74 -52 130 -50 97 -55 104 -85 107 -29 3 -33 7 -33 32 0 53 -25 59
-215 58 -94 0 -177 -3 -185 -6z"/>
<path d="M538 1553 c-10 -3 -19 -12 -20 -21 0 -9 -2 -21 -3 -27 -2 -5 -3 -25
-4 -42 l-1 -33 -157 0 -157 0 -98 -98 c-54 -54 -98 -106 -98 -116 0 -27 142
-166 171 -166 15 0 44 21 85 61 l62 61 1062 0 c999 0 1063 1 1080 18 15 15 17
34 16 119 -3 117 -5 121 -78 121 l-48 0 0 48 c0 86 78 79 -915 79 -484 0 -888
-2 -897 -4z"/>
<path d="M363 1069 c-105 -52 -137 -205 -65 -306 13 -18 89 -68 199 -130 l178
-102 740 2 740 2 160 93 c87 51 170 102 183 115 96 89 73 268 -43 326 -39 19
-59 20 -1045 20 -995 1 -1005 1 -1047 -20z"/>
</g>
</svg>
